<?xml version="1.0" encoding="iso-8859-1"?>
<!-- Generator: Adobe Illustrator 19.0.0, SVG Export Plug-In . SVG Version: 6.00 Build 0)  -->
<svg version="1.1" id="Layer_1" fill="#0707e0" xmlns="http://www.w3.org/2000/svg" xmlns:xlink="http://www.w3.org/1999/xlink" x="0px" y="0px"
	 viewBox="0 0 512 512" style="enable-background:new 0 0 512 512;" xml:space="preserve">
<g>
	<g>
		<path d="M415.265,0H96.735C74.21,0,55.884,18.325,55.884,40.851v430.298C55.884,493.675,74.21,512,96.735,512h318.529
			c22.526,0,40.851-18.325,40.851-40.851V40.851C456.116,18.325,437.79,0,415.265,0z M170.267,16.34h171.465v49.021H170.267V16.34z
			 M439.775,471.149c0,13.515-10.996,24.511-24.511,24.511H96.735c-13.516,0-24.511-10.996-24.511-24.511V40.851
			c0-13.515,10.995-24.511,24.511-24.511h57.191v57.191c0,4.513,3.658,8.17,8.17,8.17h187.806c4.513,0,8.17-3.657,8.17-8.17V16.34
			h57.192c13.515,0,24.511,10.996,24.511,24.511V471.149z"/>
	</g>
</g>
<g>
	<g>
		<path d="M415.265,32.681h-32.681c-4.513,0-8.17,3.657-8.17,8.17s3.657,8.17,8.17,8.17h24.511v305.021H306.329
			c-4.513,0-8.17,3.657-8.17,8.17v100.766H104.905V49.021h24.511c4.512,0,8.17-3.657,8.17-8.17s-3.658-8.17-8.17-8.17H96.735
			c-4.512,0-8.17,3.657-8.17,8.17v430.298c0,4.513,3.658,8.17,8.17,8.17h209.593c0.273,0,0.546-0.014,0.816-0.041
			c0.206-0.021,0.407-0.056,0.608-0.09c0.061-0.011,0.123-0.016,0.184-0.028c0.237-0.048,0.471-0.108,0.7-0.176
			c0.024-0.007,0.048-0.011,0.072-0.018c0.233-0.071,0.46-0.154,0.683-0.244c0.023-0.009,0.046-0.015,0.069-0.025
			c0.212-0.088,0.418-0.188,0.621-0.293c0.034-0.017,0.069-0.032,0.102-0.049c0.186-0.1,0.366-0.211,0.542-0.325
			c0.048-0.031,0.098-0.057,0.145-0.088c0.162-0.109,0.316-0.228,0.47-0.348c0.058-0.045,0.119-0.084,0.174-0.131
			c0.159-0.131,0.309-0.272,0.459-0.415c0.044-0.041,0.09-0.077,0.133-0.12l108.936-108.936c0.043-0.042,0.078-0.089,0.12-0.133
			c0.143-0.149,0.284-0.3,0.415-0.459c0.047-0.057,0.087-0.119,0.132-0.177c0.119-0.153,0.237-0.306,0.345-0.466
			c0.033-0.049,0.06-0.101,0.092-0.151c0.112-0.175,0.222-0.353,0.321-0.537c0.017-0.034,0.032-0.069,0.049-0.101
			c0.106-0.203,0.206-0.41,0.294-0.622c0.009-0.021,0.015-0.042,0.023-0.063c0.091-0.224,0.174-0.453,0.246-0.687
			c0.008-0.024,0.012-0.049,0.018-0.073c0.068-0.23,0.129-0.462,0.175-0.699c0.013-0.065,0.018-0.133,0.031-0.199
			c0.034-0.196,0.069-0.392,0.088-0.593c0.027-0.27,0.041-0.541,0.041-0.816V40.852C423.435,36.338,419.778,32.681,415.265,32.681z
			 M314.499,451.425v-81.042h81.042L314.499,451.425z"/>
	</g>
</g>
<g>
	<g>
		<path d="M317.222,32.681H194.778c-4.512,0-8.17,3.657-8.17,8.17s3.658,8.17,8.17,8.17h122.444c4.513,0,8.17-3.657,8.17-8.17
			S321.735,32.681,317.222,32.681z"/>
	</g>
</g>
<g>
</g>
<g>
</g>
<g>
</g>
<g>
</g>
<g>
</g>
<g>
</g>
<g>
</g>
<g>
</g>
<g>
</g>
<g>
</g>
<g>
</g>
<g>
</g>
<g>
</g>
<g>
</g>
<g>
</g>
</svg>
