<?xml version="1.0" encoding="iso-8859-1"?>
<!-- Generator: Adobe Illustrator 19.0.0, SVG Export Plug-In . SVG Version: 6.00 Build 0)  -->
<svg version="1.1" fill="#0707e0" id="Layer_1" xmlns="http://www.w3.org/2000/svg" xmlns:xlink="http://www.w3.org/1999/xlink" x="0px" y="0px"
	 viewBox="0 0 512 512" style="enable-background:new 0 0 512 512;" xml:space="preserve">
<g>
	<g>
		<path d="M409.6,230.4c-5.12,0-8.533,3.413-8.533,8.533v8.533c0,5.12,3.413,8.533,8.533,8.533s8.533-3.413,8.533-8.533v-8.533
			C418.133,233.813,414.72,230.4,409.6,230.4z"/>
	</g>
</g>
<g>
	<g>
		<path d="M409.6,263.68c-5.12,0-8.533,3.413-8.533,8.533v12.8c0,5.12,3.413,8.533,8.533,8.533s8.533-3.413,8.533-8.533v-12.8
			C418.133,267.947,414.72,263.68,409.6,263.68z"/>
	</g>
</g>
<g>
	<g>
		<path d="M409.6,302.08c-5.12,0-8.533,3.413-8.533,8.533v12.8c0,5.12,3.413,8.533,8.533,8.533s8.533-3.413,8.533-8.533v-12.8
			C418.133,305.493,414.72,302.08,409.6,302.08z"/>
	</g>
</g>
<g>
	<g>
		<path d="M409.6,414.72c-5.12,0-8.533,3.413-8.533,8.533v12.8c0,5.12,3.413,8.533,8.533,8.533s8.533-3.413,8.533-8.533v-12.8
			C418.133,418.133,414.72,414.72,409.6,414.72z"/>
	</g>
</g>
<g>
	<g>
		<path d="M409.6,339.627c-5.12,0-8.533,3.413-8.533,8.533v12.8c0,5.12,3.413,8.533,8.533,8.533s8.533-3.413,8.533-8.533v-12.8
			C418.133,343.04,414.72,339.627,409.6,339.627z"/>
	</g>
</g>
<g>
	<g>
		<path d="M409.6,377.173c-5.12,0-8.533,3.413-8.533,8.533v12.8c0,5.12,3.413,8.533,8.533,8.533s8.533-3.413,8.533-8.533v-12.8
			C418.133,380.587,414.72,377.173,409.6,377.173z"/>
	</g>
</g>
<g>
	<g>
		<path d="M409.6,452.267c-5.12,0-8.533,3.413-8.533,8.533v8.533c0,5.12,3.413,8.533,8.533,8.533s8.533-3.413,8.533-8.533V460.8
			C418.133,455.68,414.72,452.267,409.6,452.267z"/>
	</g>
</g>
<g>
	<g>
		<path d="M460.8,230.4c-5.12,0-8.533,3.413-8.533,8.533v8.533c0,5.12,3.413,8.533,8.533,8.533c5.12,0,8.533-3.413,8.533-8.533
			v-8.533C469.333,233.813,465.92,230.4,460.8,230.4z"/>
	</g>
</g>
<g>
	<g>
		<path d="M460.8,302.08c-5.12,0-8.533,3.413-8.533,8.533v12.8c0,5.12,3.413,8.533,8.533,8.533c5.12,0,8.533-3.413,8.533-8.533
			v-12.8C469.333,305.493,465.92,302.08,460.8,302.08z"/>
	</g>
</g>
<g>
	<g>
		<path d="M460.8,263.68c-5.12,0-8.533,3.413-8.533,8.533v12.8c0,5.12,3.413,8.533,8.533,8.533c5.12,0,8.533-3.413,8.533-8.533
			v-12.8C469.333,267.947,465.92,263.68,460.8,263.68z"/>
	</g>
</g>
<g>
	<g>
		<path d="M460.8,377.173c-5.12,0-8.533,3.413-8.533,8.533v12.8c0,5.12,3.413,8.533,8.533,8.533c5.12,0,8.533-3.413,8.533-8.533
			v-12.8C469.333,380.587,465.92,377.173,460.8,377.173z"/>
	</g>
</g>
<g>
	<g>
		<path d="M460.8,339.627c-5.12,0-8.533,3.413-8.533,8.533v12.8c0,5.12,3.413,8.533,8.533,8.533c5.12,0,8.533-3.413,8.533-8.533
			v-12.8C469.333,343.04,465.92,339.627,460.8,339.627z"/>
	</g>
</g>
<g>
	<g>
		<path d="M460.8,414.72c-5.12,0-8.533,3.413-8.533,8.533v12.8c0,5.12,3.413,8.533,8.533,8.533c5.12,0,8.533-3.413,8.533-8.533
			v-12.8C469.333,418.133,465.92,414.72,460.8,414.72z"/>
	</g>
</g>
<g>
	<g>
		<path d="M460.8,452.267c-5.12,0-8.533,3.413-8.533,8.533v8.533c0,5.12,3.413,8.533,8.533,8.533c5.12,0,8.533-3.413,8.533-8.533
			V460.8C469.333,455.68,465.92,452.267,460.8,452.267z"/>
	</g>
</g>
<g>
	<g>
		<path d="M51.2,315.733c-5.12,0-8.533,3.413-8.533,8.533v17.067c0,5.12,3.413,8.533,8.533,8.533s8.533-3.413,8.533-8.533v-17.067
			C59.733,319.147,56.32,315.733,51.2,315.733z"/>
	</g>
</g>
<g>
	<g>
		<path d="M51.2,213.333c-5.12,0-8.533,3.413-8.533,8.533v17.067c0,5.12,3.413,8.533,8.533,8.533s8.533-3.413,8.533-8.533v-17.067
			C59.733,216.747,56.32,213.333,51.2,213.333z"/>
	</g>
</g>
<g>
	<g>
		<path d="M51.2,366.933c-5.12,0-8.533,3.413-8.533,8.533v17.067c0,5.12,3.413,8.533,8.533,8.533s8.533-3.413,8.533-8.533v-17.067
			C59.733,370.347,56.32,366.933,51.2,366.933z"/>
	</g>
</g>
<g>
	<g>
		<path d="M51.2,418.133c-5.12,0-8.533,3.413-8.533,8.533v17.067c0,5.12,3.413,8.533,8.533,8.533s8.533-3.413,8.533-8.533v-17.067
			C59.733,421.547,56.32,418.133,51.2,418.133z"/>
	</g>
</g>
<g>
	<g>
		<path d="M51.2,264.533c-5.12,0-8.533,3.413-8.533,8.533v17.067c0,5.12,3.413,8.533,8.533,8.533s8.533-3.413,8.533-8.533v-17.067
			C59.733,267.947,56.32,264.533,51.2,264.533z"/>
	</g>
</g>
<g>
	<g>
		<path d="M51.2,162.133c-5.12,0-8.533,3.413-8.533,8.533v17.067c0,5.12,3.413,8.533,8.533,8.533s8.533-3.413,8.533-8.533v-17.067
			C59.733,165.547,56.32,162.133,51.2,162.133z"/>
	</g>
</g>
<g>
	<g>
		<path d="M102.4,213.333c-5.12,0-8.533,3.413-8.533,8.533v17.067c0,5.12,3.413,8.533,8.533,8.533s8.533-3.413,8.533-8.533v-17.067
			C110.933,216.747,107.52,213.333,102.4,213.333z"/>
	</g>
</g>
<g>
	<g>
		<path d="M102.4,162.133c-5.12,0-8.533,3.413-8.533,8.533v17.067c0,5.12,3.413,8.533,8.533,8.533s8.533-3.413,8.533-8.533v-17.067
			C110.933,165.547,107.52,162.133,102.4,162.133z"/>
	</g>
</g>
<g>
	<g>
		<path d="M102.4,264.533c-5.12,0-8.533,3.413-8.533,8.533v17.067c0,5.12,3.413,8.533,8.533,8.533s8.533-3.413,8.533-8.533v-17.067
			C110.933,267.947,107.52,264.533,102.4,264.533z"/>
	</g>
</g>
<g>
	<g>
		<path d="M102.4,418.133c-5.12,0-8.533,3.413-8.533,8.533v17.067c0,5.12,3.413,8.533,8.533,8.533s8.533-3.413,8.533-8.533v-17.067
			C110.933,421.547,107.52,418.133,102.4,418.133z"/>
	</g>
</g>
<g>
	<g>
		<path d="M102.4,315.733c-5.12,0-8.533,3.413-8.533,8.533v17.067c0,5.12,3.413,8.533,8.533,8.533s8.533-3.413,8.533-8.533v-17.067
			C110.933,319.147,107.52,315.733,102.4,315.733z"/>
	</g>
</g>
<g>
	<g>
		<path d="M102.4,366.933c-5.12,0-8.533,3.413-8.533,8.533v17.067c0,5.12,3.413,8.533,8.533,8.533s8.533-3.413,8.533-8.533v-17.067
			C110.933,370.347,107.52,366.933,102.4,366.933z"/>
	</g>
</g>
<g>
	<g>
		<path d="M503.467,204.8H486.4v-25.6c0-5.12-3.413-8.533-8.533-8.533H435.2v-25.6c0-5.12-3.413-8.533-8.533-8.533
			s-8.533,3.413-8.533,8.533v25.6H384V76.8c0-5.12-3.413-8.533-8.533-8.533H358.4v-25.6c0-5.12-3.413-8.533-8.533-8.533h-85.333
			v-25.6C264.533,3.413,261.12,0,256,0s-8.533,3.413-8.533,8.533v25.6h-85.333c-5.12,0-8.533,3.413-8.533,8.533v25.6h-17.067
			c-5.12,0-8.533,3.413-8.533,8.533v17.067H93.867v-25.6c0-5.12-3.413-8.533-8.533-8.533c-5.12,0-8.533,3.413-8.533,8.533v25.6
			H34.133c-5.12,0-8.533,3.413-8.533,8.533V128H8.533C3.413,128,0,131.413,0,136.533v366.933c0,2.56,0.853,4.267,2.56,5.973
			c1.707,1.707,3.413,2.56,5.973,2.56H135.68h0.853h238.933h128c5.12,0,8.533-3.413,8.533-8.533V213.333
			C512,208.213,508.587,204.8,503.467,204.8z M128,494.933H17.067V145.067h17.067H128V494.933z M128,128H42.667v-17.067H128V128z
			 M187.733,477.867c0,5.12-3.413,8.533-8.533,8.533s-8.533-3.413-8.533-8.533v-8.533c0-5.12,3.413-8.533,8.533-8.533
			s8.533,3.413,8.533,8.533V477.867z M187.733,435.2c0,5.12-3.413,8.533-8.533,8.533s-8.533-3.413-8.533-8.533v-17.067
			c0-5.12,3.413-8.533,8.533-8.533s8.533,3.413,8.533,8.533V435.2z M187.733,384c0,5.12-3.413,8.533-8.533,8.533
			s-8.533-3.413-8.533-8.533v-17.067c0-5.12,3.413-8.533,8.533-8.533s8.533,3.413,8.533,8.533V384z M187.733,332.8
			c0,5.12-3.413,8.533-8.533,8.533s-8.533-3.413-8.533-8.533v-17.067c0-5.12,3.413-8.533,8.533-8.533s8.533,3.413,8.533,8.533V332.8
			z M187.733,281.6c0,5.12-3.413,8.533-8.533,8.533s-8.533-3.413-8.533-8.533v-17.067c0-5.12,3.413-8.533,8.533-8.533
			s8.533,3.413,8.533,8.533V281.6z M187.733,230.4c0,5.12-3.413,8.533-8.533,8.533s-8.533-3.413-8.533-8.533v-17.067
			c0-5.12,3.413-8.533,8.533-8.533s8.533,3.413,8.533,8.533V230.4z M187.733,179.2c0,5.12-3.413,8.533-8.533,8.533
			s-8.533-3.413-8.533-8.533v-17.067c0-5.12,3.413-8.533,8.533-8.533s8.533,3.413,8.533,8.533V179.2z M187.733,128
			c0,5.12-3.413,8.533-8.533,8.533s-8.533-3.413-8.533-8.533v-17.067c0-5.12,3.413-8.533,8.533-8.533s8.533,3.413,8.533,8.533V128z
			 M238.933,477.867c0,5.12-3.413,8.533-8.533,8.533s-8.533-3.413-8.533-8.533v-8.533c0-5.12,3.413-8.533,8.533-8.533
			s8.533,3.413,8.533,8.533V477.867z M238.933,435.2c0,5.12-3.413,8.533-8.533,8.533s-8.533-3.413-8.533-8.533v-17.067
			c0-5.12,3.413-8.533,8.533-8.533s8.533,3.413,8.533,8.533V435.2z M238.933,384c0,5.12-3.413,8.533-8.533,8.533
			s-8.533-3.413-8.533-8.533v-17.067c0-5.12,3.413-8.533,8.533-8.533s8.533,3.413,8.533,8.533V384z M238.933,332.8
			c0,5.12-3.413,8.533-8.533,8.533s-8.533-3.413-8.533-8.533v-17.067c0-5.12,3.413-8.533,8.533-8.533s8.533,3.413,8.533,8.533V332.8
			z M238.933,281.6c0,5.12-3.413,8.533-8.533,8.533s-8.533-3.413-8.533-8.533v-17.067c0-5.12,3.413-8.533,8.533-8.533
			s8.533,3.413,8.533,8.533V281.6z M238.933,230.4c0,5.12-3.413,8.533-8.533,8.533s-8.533-3.413-8.533-8.533v-17.067
			c0-5.12,3.413-8.533,8.533-8.533s8.533,3.413,8.533,8.533V230.4z M238.933,179.2c0,5.12-3.413,8.533-8.533,8.533
			s-8.533-3.413-8.533-8.533v-17.067c0-5.12,3.413-8.533,8.533-8.533s8.533,3.413,8.533,8.533V179.2z M238.933,128
			c0,5.12-3.413,8.533-8.533,8.533s-8.533-3.413-8.533-8.533v-17.067c0-5.12,3.413-8.533,8.533-8.533s8.533,3.413,8.533,8.533V128z
			 M290.133,477.867c0,5.12-3.413,8.533-8.533,8.533s-8.533-3.413-8.533-8.533v-8.533c0-5.12,3.413-8.533,8.533-8.533
			s8.533,3.413,8.533,8.533V477.867z M290.133,435.2c0,5.12-3.413,8.533-8.533,8.533s-8.533-3.413-8.533-8.533v-17.067
			c0-5.12,3.413-8.533,8.533-8.533s8.533,3.413,8.533,8.533V435.2z M290.133,384c0,5.12-3.413,8.533-8.533,8.533
			s-8.533-3.413-8.533-8.533v-17.067c0-5.12,3.413-8.533,8.533-8.533s8.533,3.413,8.533,8.533V384z M290.133,332.8
			c0,5.12-3.413,8.533-8.533,8.533s-8.533-3.413-8.533-8.533v-17.067c0-5.12,3.413-8.533,8.533-8.533s8.533,3.413,8.533,8.533V332.8
			z M290.133,281.6c0,5.12-3.413,8.533-8.533,8.533s-8.533-3.413-8.533-8.533v-17.067c0-5.12,3.413-8.533,8.533-8.533
			s8.533,3.413,8.533,8.533V281.6z M290.133,230.4c0,5.12-3.413,8.533-8.533,8.533s-8.533-3.413-8.533-8.533v-17.067
			c0-5.12,3.413-8.533,8.533-8.533s8.533,3.413,8.533,8.533V230.4z M290.133,179.2c0,5.12-3.413,8.533-8.533,8.533
			s-8.533-3.413-8.533-8.533v-17.067c0-5.12,3.413-8.533,8.533-8.533s8.533,3.413,8.533,8.533V179.2z M290.133,128
			c0,5.12-3.413,8.533-8.533,8.533s-8.533-3.413-8.533-8.533v-17.067c0-5.12,3.413-8.533,8.533-8.533s8.533,3.413,8.533,8.533V128z
			 M341.333,477.867c0,5.12-3.413,8.533-8.533,8.533c-5.12,0-8.533-3.413-8.533-8.533v-8.533c0-5.12,3.413-8.533,8.533-8.533
			c5.12,0,8.533,3.413,8.533,8.533V477.867z M341.333,435.2c0,5.12-3.413,8.533-8.533,8.533c-5.12,0-8.533-3.413-8.533-8.533
			v-17.067c0-5.12,3.413-8.533,8.533-8.533c5.12,0,8.533,3.413,8.533,8.533V435.2z M341.333,384c0,5.12-3.413,8.533-8.533,8.533
			c-5.12,0-8.533-3.413-8.533-8.533v-17.067c0-5.12,3.413-8.533,8.533-8.533c5.12,0,8.533,3.413,8.533,8.533V384z M341.333,332.8
			c0,5.12-3.413,8.533-8.533,8.533c-5.12,0-8.533-3.413-8.533-8.533v-17.067c0-5.12,3.413-8.533,8.533-8.533
			c5.12,0,8.533,3.413,8.533,8.533V332.8z M341.333,281.6c0,5.12-3.413,8.533-8.533,8.533c-5.12,0-8.533-3.413-8.533-8.533v-17.067
			c0-5.12,3.413-8.533,8.533-8.533c5.12,0,8.533,3.413,8.533,8.533V281.6z M341.333,230.4c0,5.12-3.413,8.533-8.533,8.533
			c-5.12,0-8.533-3.413-8.533-8.533v-17.067c0-5.12,3.413-8.533,8.533-8.533c5.12,0,8.533,3.413,8.533,8.533V230.4z M341.333,179.2
			c0,5.12-3.413,8.533-8.533,8.533c-5.12,0-8.533-3.413-8.533-8.533v-17.067c0-5.12,3.413-8.533,8.533-8.533
			c5.12,0,8.533,3.413,8.533,8.533V179.2z M341.333,128c0,5.12-3.413,8.533-8.533,8.533c-5.12,0-8.533-3.413-8.533-8.533v-17.067
			c0-5.12,3.413-8.533,8.533-8.533c5.12,0,8.533,3.413,8.533,8.533V128z M384,187.733h85.333V204.8H384V187.733z M494.933,494.933
			H384V221.867h93.867h17.067V494.933z"/>
	</g>
</g>
<g>
</g>
<g>
</g>
<g>
</g>
<g>
</g>
<g>
</g>
<g>
</g>
<g>
</g>
<g>
</g>
<g>
</g>
<g>
</g>
<g>
</g>
<g>
</g>
<g>
</g>
<g>
</g>
<g>
</g>
</svg>
